<svg width="383" height="76" viewBox="0 0 383 76" fill="none" xmlns="http://www.w3.org/2000/svg">
<path d="M54.504 74L52.392 53.36L55.176 46.928L52.488 39.536L56.52 0.0799961H69.384L64.488 46.064L67.272 74H54.504ZM58.152 46.832C56.936 52.528 54.92 57.52 52.104 61.808C49.288 66.096 45.8 69.424 41.64 71.792C37.544 74.16 32.968 75.344 27.912 75.344C22.6 75.344 17.896 74.16 13.8 71.792C9.704 69.36 6.504 66 4.2 61.712C1.896 57.424 0.744 52.464 0.744 46.832C0.744 41.136 1.896 36.176 4.2 31.952C6.504 27.664 9.704 24.336 13.8 21.968C17.896 19.536 22.6 18.32 27.912 18.32C32.968 18.32 37.544 19.504 41.64 21.872C45.8 24.24 49.288 27.568 52.104 31.856C54.984 36.08 57 41.072 58.152 46.832ZM13.416 46.832C13.416 50.48 14.152 53.712 15.624 56.528C17.16 59.28 19.24 61.456 21.864 63.056C24.488 64.592 27.496 65.36 30.888 65.36C34.344 65.36 37.544 64.592 40.488 63.056C43.432 61.456 46.024 59.28 48.264 56.528C50.568 53.712 52.392 50.48 53.736 46.832C52.392 43.184 50.568 39.984 48.264 37.232C46.024 34.416 43.432 32.24 40.488 30.704C37.544 29.104 34.344 28.304 30.888 28.304C27.496 28.304 24.488 29.104 21.864 30.704C19.24 32.24 17.16 34.416 15.624 37.232C14.152 39.984 13.416 43.184 13.416 46.832ZM108.944 75.344C102.608 75.344 96.9763 74.16 92.0483 71.792C87.1203 69.36 83.2483 66 80.4323 61.712C77.6163 57.424 76.2083 52.432 76.2083 46.736C76.2083 41.104 77.5203 36.176 80.1443 31.952C82.8323 27.664 86.5123 24.336 91.1843 21.968C95.9203 19.536 101.328 18.32 107.408 18.32C113.488 18.32 118.736 19.696 123.152 22.448C127.632 25.136 131.088 28.944 133.52 33.872C135.952 38.8 137.168 44.592 137.168 51.248H86.0003V41.744H130.928L124.688 45.296C124.496 41.712 123.632 38.64 122.096 36.08C120.624 33.52 118.608 31.568 116.048 30.224C113.552 28.816 110.576 28.112 107.12 28.112C103.472 28.112 100.272 28.848 97.5203 30.32C94.8323 31.792 92.7203 33.872 91.1843 36.56C89.6483 39.184 88.8803 42.32 88.8803 45.968C88.8803 50 89.7763 53.488 91.5683 56.432C93.4243 59.376 96.0163 61.648 99.3443 63.248C102.736 64.784 106.736 65.552 111.344 65.552C115.504 65.552 119.76 64.912 124.112 63.632C128.464 62.288 132.304 60.432 135.632 58.064V67.088C132.304 69.648 128.24 71.664 123.44 73.136C118.704 74.608 113.872 75.344 108.944 75.344ZM140.168 29.264V23.6L151.784 20.624L156.968 5.456H164.264V19.664H189.512V29.264H164.264V52.784C164.264 57.328 165.224 60.528 167.144 62.384C169.128 64.176 172.328 65.072 176.744 65.072C179.56 65.072 182.056 64.784 184.232 64.208C186.408 63.568 188.488 62.672 190.472 61.52V71.792C188.808 72.624 186.44 73.424 183.368 74.192C180.36 74.96 177.256 75.344 174.056 75.344C168.744 75.344 164.456 74.48 161.192 72.752C157.928 70.96 155.528 68.528 153.992 65.456C152.52 62.32 151.784 58.736 151.784 54.704V29.264H140.168ZM227.735 75.344C221.143 75.344 215.351 74.16 210.359 71.792C205.431 69.36 201.559 66 198.743 61.712C195.991 57.424 194.615 52.464 194.615 46.832C194.615 41.136 195.991 36.176 198.743 31.952C201.559 27.664 205.431 24.336 210.359 21.968C215.351 19.536 221.143 18.32 227.735 18.32C234.327 18.32 240.087 19.536 245.015 21.968C250.007 24.336 253.879 27.664 256.631 31.952C259.447 36.176 260.855 41.136 260.855 46.832C260.855 52.464 259.447 57.424 256.631 61.712C253.879 66 250.007 69.36 245.015 71.792C240.087 74.16 234.327 75.344 227.735 75.344ZM227.735 65.552C231.959 65.552 235.575 64.784 238.583 63.248C241.655 61.712 244.023 59.568 245.687 56.816C247.351 54 248.183 50.672 248.183 46.832C248.183 42.992 247.351 39.696 245.687 36.944C244.023 34.128 241.655 31.952 238.583 30.416C235.575 28.88 231.959 28.112 227.735 28.112C223.575 28.112 219.959 28.88 216.887 30.416C213.815 31.952 211.447 34.128 209.783 36.944C208.119 39.696 207.287 42.992 207.287 46.832C207.287 50.672 208.119 54 209.783 56.816C211.447 59.568 213.815 61.712 216.887 63.248C219.959 64.784 223.575 65.552 227.735 65.552ZM293.751 75.344C288.759 75.344 284.503 74.32 280.983 72.272C277.527 70.224 274.871 67.28 273.015 63.44C271.159 59.6 270.231 55.024 270.231 49.712V19.664H282.711V47.792C282.711 53.424 283.991 57.712 286.551 60.656C289.175 63.536 292.919 64.976 297.783 64.976C301.303 64.976 304.311 64.208 306.807 62.672C309.367 61.136 311.351 58.96 312.759 56.144C314.167 53.264 314.871 49.936 314.871 46.16L319.191 48.56C318.679 54.128 317.271 58.928 314.967 62.96C312.663 66.928 309.687 70 306.039 72.176C302.391 74.288 298.295 75.344 293.751 75.344ZM318.039 74L314.871 54.416V19.664H327.351V56.336L330.519 74H318.039ZM338.72 19.664H351.2L354.464 39.44V74H341.984V37.04L338.72 19.664ZM382.016 19.28V30.224C380.608 29.84 379.072 29.552 377.408 29.36C375.744 29.168 374.176 29.072 372.704 29.072C369.184 29.072 366.048 29.84 363.296 31.376C360.544 32.912 358.368 35.216 356.768 38.288C355.232 41.296 354.464 45.008 354.464 49.424L351.584 45.872C351.84 42.032 352.48 38.448 353.504 35.12C354.592 31.728 356.064 28.784 357.92 26.288C359.84 23.792 362.176 21.84 364.928 20.432C367.68 19.024 370.88 18.32 374.528 18.32C375.808 18.32 377.12 18.416 378.464 18.608C379.808 18.736 380.992 18.96 382.016 19.28Z" fill="black"/>
</svg>
